<svg id="Capa_1" data-name="Capa 1" xmlns="http://www.w3.org/2000/svg" viewBox="0 0 80 80"><defs><style>.cls-1{fill:#1d4d55;}.cls-2{fill:#f2ffe9;}</style></defs><rect class="cls-1" width="80" height="80"/><path class="cls-2" d="M40,19.21a3.76,3.76,0,0,1,3.34,2L50.29,33.6l7,12.39a4.24,4.24,0,0,1,0,4.27,3.79,3.79,0,0,1-3.3,2H46.3v8.58H33.7V52.21H26.1a3.79,3.79,0,0,1-3.3-2,4.24,4.24,0,0,1,0-4.27l7-12.39,6.95-12.38a3.76,3.76,0,0,1,3.34-2m0-4.14a7.91,7.91,0,0,0-7,4.13L26.1,31.58,19.15,44c-3.09,5.5.77,12.38,7,12.38h3.47v8.59H50.43V56.34H53.9c6.18,0,10-6.88,7-12.38l-7-12.38L47,19.2a7.91,7.91,0,0,0-7-4.13Z"/></svg>