<?xml version="1.0" encoding="utf-8"?>
<!-- Generator: Adobe Illustrator 25.0.1, SVG Export Plug-In . SVG Version: 6.00 Build 0)  -->
<svg version="1.1" id="Capa_1" xmlns="http://www.w3.org/2000/svg" xmlns:xlink="http://www.w3.org/1999/xlink" x="0px" y="0px"
	 viewBox="0 0 61 53.25" style="enable-background:new 0 0 61 53.25;" xml:space="preserve">
<style type="text/css">
	.st0{fill:#1D4D55;}
	.st1{fill:#294596;}
	.st2{fill:#EB5790;}
	.st3{fill:none;stroke:#EB5790;stroke-width:3.5632;stroke-miterlimit:10;}
</style>
<g>
	<path class="st0" d="M9.09,28.7c-0.46-0.15-0.9-0.3-1.32-0.46L9.09,28.7z"/>
	<path class="st0" d="M15.32,30.37c-0.01,0-0.02,0-0.02-0.01c-1.87-0.48-3.76-0.91-5.43-1.4c-0.01-0.01-0.02-0.01-0.04-0.01
		c0.01-0.4,0.03-0.79,0.06-1.17v-0.02c0.06-1.75,0.26-5,1.05-7.2c0.59-2.17,1.36-3.49,2.21-3.49c0.22,0,0.53,0.06,0.89,0.51
		C15.63,19.52,15.97,25.58,15.32,30.37z"/>
	<path class="st0" d="M44.37,29.49c-0.01,0.41-0.02,0.82-0.02,1.22c-0.21,0.06-0.42,0.11-0.63,0.17l0.52-0.15
		C44.24,30.73,44.28,30.25,44.37,29.49z"/>
	<path class="st0" d="M51.02,29L51.02,29l0-0.04C51.01,28.97,51.02,28.98,51.02,29z"/>
	<path class="st0" d="M53.69,28.08c-0.04,0.02-0.09,0.04-0.13,0.06c0-0.18-0.02-0.74-0.08-1.53C53.56,27.1,53.63,27.6,53.69,28.08z"
		/>
	<path class="st0" d="M34.84,0c0,0,3.58,9.92,3.2,13.65c-0.81,7.94-7.55,12.02-7.55,12.02v0.04h-0.04v-0.04
		c0,0-6.25-4.72-7.05-12.66C23.02,9.28,26.09,0,26.09,0H0c0,0,1.43,21.09,4.39,25.91c0.52,0.84,1.46,1.49,2.68,2.04
		c0.27-5.6,1.45-13.67,6.03-13.67c1.17,0,2.22,0.53,3.03,1.52c2.64,3.24,2.43,10.91,1.82,15.28c4.32,1.32,8,3.21,8.13,7.19H15.87
		l0.02,1.4c0.05,3.2-0.47,8.87-2.07,10.5c-0.29,0.29-0.5,0.33-0.66,0.33c-0.01,0-1.15-0.25-2.14-5.09
		c2.87-4.11,5.92-9.11,6.66-12.69c0.09-0.46,0.19-1.02,0.28-1.64c-0.02-0.01-0.04-0.01-0.06-0.02c-0.85-0.26-1.73-0.49-2.61-0.72
		c0,0.04-0.01,0.08-0.02,0.11c-0.08,0.59-0.18,1.16-0.29,1.7c-0.53,2.52-2.45,5.99-4.59,9.26c-0.5-4.17-0.63-8.6-0.63-10.48
		c0-0.67,0.01-1.34,0.04-1.99v-0.03c-0.23-0.07-0.46-0.14-0.68-0.21L9.09,28.7l-1.32-0.46c-0.22-0.08-0.42-0.17-0.62-0.26
		c-0.02-0.01-0.05-0.02-0.07-0.04c-0.06,1.13-0.07,2.16-0.07,2.99c0,2.09,0.17,7.25,0.79,11.83c0.09,0.7,0.2,1.36,0.31,1.99
		c-2.5,3.49-5.8,7.84-5.84,7.9l3.28-0.02c0.16-0.19,1.52-1.83,3.37-4.31c1,3.34,2.39,4.92,4.25,4.92c0.98,0,1.89-0.4,2.63-1.15
		c2.34-2.37,2.77-8.29,2.85-11.07h7.35c-0.68,7.45-4.24,10.79-4.24,10.79H39.2c0,0-3.56-3.34-4.24-10.79h6.59
		c0.06,3.76,0.52,7.55,2.55,9.64c1.01,1.03,2.3,1.56,3.82,1.56c1.71,0,3.12-0.55,4.19-1.65c2.02-2.06,1.97-5.3,1.97-5.44l-2.75,0.06
		c0,0.02,0.02,2.24-1.19,3.46c-0.54,0.55-1.27,0.81-2.21,0.81c-0.78,0-1.37-0.23-1.85-0.73c-1.96-2.01-1.82-7.81-1.73-11.65
		c0.02-0.86,0.04-1.67,0.04-2.4c0-0.54,0-1.12-0.01-1.74c-0.01-0.7-0.02-1.46-0.02-2.25c-0.21,0.06-0.42,0.11-0.63,0.17l-0.7,0.2
		l-1.27,0.37c0,0,0.26-6.26,1.8-11.02c0.91-2.82,2.28-5.11,4.31-5.26c4.28-0.32,5.35,7.85,5.62,11.41c0,0.01,0,0.02,0,0.02
		c0.08,0.49,0.15,0.99,0.21,1.48c1.34-0.56,2.4-1.24,2.99-2.12C59.83,21.26,61,0,61,0H34.84z M34.85,38.27
		c0.12-3.55,3.05-5.44,6.75-6.73c0,0.49,0.01,0.97,0.02,1.44c0.01,0.6,0.01,1.17,0.01,1.7c0,0.7-0.02,1.49-0.04,2.33
		c-0.01,0.41-0.02,0.83-0.03,1.25H34.85z"/>
	<path class="st0" d="M51.01,28.96V29c-2.06,0.59-4.41,1.09-6.66,1.71c0-0.4,0.01-0.81,0.02-1.22c0,0,0,0,0-0.01
		c0.2-1.74,0.65-4.96,1.38-7.37c0.53-1.76,1.21-3.08,2.06-3.1c2.63-0.04,3.15,8.76,3.21,9.92C51.01,28.94,51.01,28.95,51.01,28.96z"
		/>
	<path class="st0" d="M54.07,35.19l-2.75-0.04c0.03-1.7-0.06-3.91-0.3-6.08c0-0.02,0-0.04,0-0.06c0.92-0.26,1.77-0.54,2.54-0.86
		c0-0.18-0.02-0.74-0.08-1.53c0.08,0.49,0.15,0.99,0.21,1.48C54.11,31.46,54.09,34.56,54.07,35.19z"/>
</g>
</svg>
